<?xml version="1.0" encoding="UTF-8"?>
<!DOCTYPE svg PUBLIC "-//W3C//DTD SVG 1.1//EN" "http://www.w3.org/Graphics/SVG/1.1/DTD/svg11.dtd">
<!-- Creator: CorelDRAW X8 -->
<svg xmlns="http://www.w3.org/2000/svg" xml:space="preserve" width="512px" height="512px" version="1.1" shape-rendering="geometricPrecision" text-rendering="geometricPrecision" image-rendering="optimizeQuality" fill-rule="evenodd" clip-rule="evenodd"
viewBox="0 0 512 512"
 xmlns:xlink="http://www.w3.org/1999/xlink">
 <rect fill="none" width="512" height="512"/>
 <g id="Layer_x0020_1">
  <metadata id="CorelCorpID_0Corel-Layer"/>
  <g id="_1994543202960">
   <circle fill="#E0E1E2" cx="256" cy="261" r="204"/>
   <circle fill="white" cx="256" cy="261" r="118"/>
   <path fill="#424A60" d="M131 480c-2,0 -4,-1 -6,-2 -3,-3 -3,-8 0,-11l31 -31c3,-3 8,-3 11,0 3,3 3,8 0,11l-31 31c-1,1 -3,2 -5,2z"/>
   <path fill="#424A60" d="M381 480c-2,0 -4,-1 -5,-2l-31 -31c-3,-3 -3,-8 0,-11 3,-4 8,-4 11,0l31 31c3,3 3,8 0,11 -2,1 -4,2 -6,2z"/>
   <path fill="#C7CAC7" d="M398 121c-2,0 -4,-1 -6,-2 -3,-3 -3,-8 0,-11l24 -24c3,-3 8,-3 11,0 3,3 3,8 0,11l-24 24c-1,1 -3,2 -5,2z"/>
   <path fill="#C7CAC7" d="M114 121c-2,0 -4,-1 -5,-2l-24 -24c-3,-3 -3,-8 0,-11 3,-3 8,-3 11,0l24 24c3,3 3,8 0,11 -2,1 -4,2 -6,2z"/>
   <path fill="#26B99A" d="M256 480c-121,0 -219,-98 -219,-219 0,-121 98,-220 219,-220 121,0 219,99 219,220 0,121 -98,219 -219,219zm0 -408c-104,0 -188,85 -188,189 0,103 84,188 188,188 104,0 188,-85 188,-188 0,-104 -84,-189 -188,-189z"/>
   <path fill="#26B99A" d="M256 79c-4,0 -8,4 -8,8l0 8c0,4 4,8 8,8 4,0 8,-4 8,-8l0 -8c0,-4 -4,-8 -8,-8z"/>
   <path fill="#26B99A" d="M256 416c-4,0 -8,4 -8,8l0 8c0,4 4,8 8,8 4,0 8,-4 8,-8l0 -8c0,-4 -4,-8 -8,-8z"/>
   <path fill="#26B99A" d="M428 252l-7 0c-5,0 -8,3 -8,8 0,4 3,7 8,7l7 0c5,0 8,-3 8,-7 0,-5 -3,-8 -8,-8z"/>
   <path fill="#26B99A" d="M91 252l-7 0c-5,0 -8,3 -8,8 0,4 3,7 8,7l7 0c5,0 8,-3 8,-7 0,-5 -3,-8 -8,-8z"/>
   <path fill="#26B99A" d="M372 132l-5 6c-3,3 -3,8 0,11 1,1 3,2 5,2 2,0 4,-1 6,-2l5 -6c4,-3 4,-8 0,-11 -3,-3 -8,-3 -11,0z"/>
   <path fill="#26B99A" d="M134 370l-5 6c-4,3 -4,8 0,11 1,2 3,2 5,2 2,0 4,0 6,-2l5 -5c3,-4 3,-9 0,-12 -3,-3 -8,-3 -11,0z"/>
   <path fill="#26B99A" d="M378 370c-3,-3 -8,-3 -11,0 -3,3 -3,8 0,12l5 5c2,2 4,2 6,2 2,0 4,0 5,-2 4,-3 4,-8 0,-11l-5 -6z"/>
   <path fill="#26B99A" d="M140 132c-3,-3 -8,-3 -11,0 -4,3 -4,8 0,11l5 6c2,1 4,2 6,2 2,0 4,-1 5,-2 3,-3 3,-8 0,-11l-5 -6z"/>
   <path fill="#424A60" d="M342 268l-62 0c-5,0 -8,-3 -8,-7 0,-5 3,-8 8,-8l62 0c5,0 8,3 8,8 0,4 -3,7 -8,7z"/>
   <path fill="#424A60" d="M256 245c-4,0 -8,-4 -8,-8l0 -86c0,-5 4,-8 8,-8 4,0 8,3 8,8l0 86c0,4 -4,8 -8,8z"/>
   <path fill="#424A60" d="M256 292c-17,0 -31,-14 -31,-31 0,-18 14,-32 31,-32 17,0 31,14 31,32 0,17 -14,31 -31,31zm0 -47c-9,0 -16,7 -16,16 0,8 7,15 16,15 9,0 16,-7 16,-15 0,-9 -7,-16 -16,-16z"/>
   <path fill="#E7ECED" d="M459 48c22,22 22,57 0,79l-79 -79c22,-21 57,-21 79,0z"/>
   <path fill="#E7ECED" d="M53 48c-22,22 -22,57 0,79l79 -79c-22,-21 -57,-21 -79,0z"/>
  </g>
 </g>
</svg>
