<?xml version="1.0" encoding="UTF-8"?>
<!DOCTYPE svg PUBLIC "-//W3C//DTD SVG 1.1//EN" "http://www.w3.org/Graphics/SVG/1.1/DTD/svg11.dtd">
<!-- Creator: CorelDRAW X8 -->
<svg xmlns="http://www.w3.org/2000/svg" xml:space="preserve" width="512px" height="512px" version="1.1" shape-rendering="geometricPrecision" text-rendering="geometricPrecision" image-rendering="optimizeQuality" fill-rule="evenodd" clip-rule="evenodd"
viewBox="0 0 512 512"
 xmlns:xlink="http://www.w3.org/1999/xlink">
 <rect fill="none" width="512" height="512"/>
 <g id="Layer_x0020_1">
  <metadata id="CorelCorpID_0Corel-Layer"/>
  <g id="_1994571435984">
   <polygon fill="#FC3952" points="403,63 403,94 349,94 349,63 163,63 163,94 109,94 109,63 47,63 47,148 465,148 465,63 "/>
   <polygon fill="#EDEADA" points="109,148 47,148 47,480 465,480 465,148 403,148 349,148 163,148 "/>
   <path fill="#CEC9AE" d="M333 202l-15 0 -54 0 -16 0 -54 0 -15 0 -70 0 0 69 0 16 0 54 0 15 0 70 70 0 15 0 54 0 16 0 54 0 15 0 70 0 0 -70 0 -15 0 -54 0 -16 0 -69 -70 0zm-69 15l54 0 0 54 -54 0 0 -54zm54 124l-54 0 0 -54 54 0 0 54zm-124 -54l54 0 0 54 -54 0 0 -54zm0 -70l54 0 0 54 -54 0 0 -54zm-69 0l54 0 0 54 -54 0 0 -54zm0 70l54 0 0 54 -54 0 0 -54zm54 123l-54 0 0 -54 54 0 0 54zm69 0l-54 0 0 -54 54 0 0 54zm70 0l-54 0 0 -54 54 0 0 54zm69 0l-54 0 0 -54 54 0 0 54zm0 -69l-54 0 0 -54 54 0 0 54zm-54 -70l0 -54 54 0 0 54 -54 0z"/>
   <rect fill="#28384C" x="109" y="32" width="54.0692" height="61.7933"/>
   <rect fill="#28384C" x="349" y="32" width="54.0692" height="61.7933"/>
   <rect fill="#26B99A" x="264" y="287" width="54.0692" height="54.0692"/>
  </g>
 </g>
</svg>
