<?xml version="1.0" encoding="UTF-8"?>
<!DOCTYPE svg PUBLIC "-//W3C//DTD SVG 1.1//EN" "http://www.w3.org/Graphics/SVG/1.1/DTD/svg11.dtd">
<!-- Creator: CorelDRAW X8 -->
<svg xmlns="http://www.w3.org/2000/svg" xml:space="preserve" width="512px" height="512px" version="1.1" shape-rendering="geometricPrecision" text-rendering="geometricPrecision" image-rendering="optimizeQuality" fill-rule="evenodd" clip-rule="evenodd"
viewBox="0 0 512 512"
 xmlns:xlink="http://www.w3.org/1999/xlink">
 <rect fill="none" width="512" height="512"/>
 <g id="Layer_x0020_1">
  <metadata id="CorelCorpID_0Corel-Layer"/>
  <g id="_1994568410656">
   <path fill="#0391FD" d="M403 186l0 163c0,21 -17,38 -38,38l-163 0 -77 85 0 -85 -55 0c-21,0 -38,-17 -38,-38l0 -163c0,-21 17,-38 38,-38l295 0c21,0 38,17 38,38z"/>
   <path fill="#0F71D3" d="M442 40l-295 0c-21,0 -38,17 -38,38l0 70 256 0c21,0 38,17 38,38l0 93 39 0c21,0 38,-17 38,-38l0 -163c0,-21 -17,-38 -38,-38z"/>
   <path fill="white" d="M225 233l-108 0c-4,0 -8,-4 -8,-8 0,-4 4,-8 8,-8l108 0c4,0 8,4 8,8 0,4 -4,8 -8,8z"/>
   <path fill="white" d="M326 279l-209 0c-4,0 -8,-3 -8,-7 0,-5 4,-8 8,-8l209 0c4,0 7,3 7,8 0,4 -3,7 -7,7z"/>
   <path fill="white" d="M326 326l-209 0c-4,0 -8,-4 -8,-8 0,-4 4,-8 8,-8l209 0c4,0 7,4 7,8 0,4 -3,8 -7,8z"/>
  </g>
 </g>
</svg>
