<?xml version="1.0" encoding="UTF-8"?>
<!DOCTYPE svg PUBLIC "-//W3C//DTD SVG 1.1//EN" "http://www.w3.org/Graphics/SVG/1.1/DTD/svg11.dtd">
<!-- Creator: CorelDRAW X8 -->
<svg xmlns="http://www.w3.org/2000/svg" xml:space="preserve" width="512px" height="512px" version="1.1" shape-rendering="geometricPrecision" text-rendering="geometricPrecision" image-rendering="optimizeQuality" fill-rule="evenodd" clip-rule="evenodd"
viewBox="0 0 512 512"
 xmlns:xlink="http://www.w3.org/1999/xlink">
 <rect fill="none" width="512" height="512"/>
 <g id="Layer_x0020_1">
  <metadata id="CorelCorpID_0Corel-Layer"/>
  <g id="_1994567514768">
   <path fill="#A9A8AE" d="M313 423c-55,0 -107,-28 -138,-74 -6,-9 -4,-22 6,-28 9,-6 22,-4 28,5 24,35 63,56 104,56 70,0 126,-57 126,-126 0,-69 -56,-126 -126,-126 -42,0 -81,21 -104,56 -6,9 -19,12 -28,5 -10,-6 -12,-18 -6,-28 31,-46 83,-74 138,-74 92,0 167,75 167,167 0,92 -75,167 -167,167z"/>
   <path fill="#64C37D" d="M337 236l-235 0 26 -27c8,-8 8,-21 0,-28 -8,-8 -21,-8 -29,0l-61 61c0,0 0,0 0,0 -1,0 -1,1 -1,1 0,0 -1,0 -1,1 0,0 0,0 -1,1 0,0 0,0 0,0 0,1 0,1 -1,1 0,0 0,1 0,1 0,0 0,1 0,1 0,0 0,0 -1,0 0,1 0,1 0,2 0,0 0,0 0,0 0,1 0,1 -1,2 0,0 0,0 0,1 0,0 0,0 0,1 0,1 0,1 0,2 0,1 0,1 0,2 0,1 0,1 0,2 0,0 0,0 0,0 1,1 1,1 1,2 0,0 0,0 0,0 0,1 0,1 0,2 1,0 1,0 1,0 0,0 0,1 0,1 0,0 0,1 0,1 1,0 1,1 1,1 0,0 0,0 0,0 1,1 1,1 1,2 0,0 1,0 1,0 0,0 0,1 1,1l61 61c4,4 9,6 14,6 6,0 11,-2 15,-6 8,-7 8,-20 0,-28l-26 -27 235 0c12,0 21,-9 21,-20 0,-11 -9,-20 -21,-20z"/>
  </g>
 </g>
</svg>
