<?xml version="1.0" encoding="UTF-8"?>
<!DOCTYPE svg PUBLIC "-//W3C//DTD SVG 1.1//EN" "http://www.w3.org/Graphics/SVG/1.1/DTD/svg11.dtd">
<!-- Creator: CorelDRAW X8 -->
<svg xmlns="http://www.w3.org/2000/svg" xml:space="preserve" width="512px" height="512px" version="1.1" shape-rendering="geometricPrecision" text-rendering="geometricPrecision" image-rendering="optimizeQuality" fill-rule="evenodd" clip-rule="evenodd"
viewBox="0 0 512 512"
 xmlns:xlink="http://www.w3.org/1999/xlink">
 <rect fill="none" width="512" height="512"/>
 <g id="Layer_x0020_1">
  <metadata id="CorelCorpID_0Corel-Layer"/>
  <g id="_1994543199120">
   <path fill="#FFD15C" d="M480 461c0,6 -2,11 -6,14 -4,3 -7,5 -13,5l-410 0c-5,0 -9,-2 -13,-5 -4,-3 -6,-8 -6,-14l0 -273 448 0 0 273z"/>
   <path fill="#F8B64C" d="M474 475c-4,3 -7,5 -13,5l-410 0c-5,0 -9,-2 -13,-5l218 -187 218 187z"/>
   <path fill="#40596B" d="M480 188l-64 46 -148 106c-7,6 -18,6 -25,0l-147 -106 -64 -46 64 -46 138 -98 10 -8c7,-5 18,-5 25,0l10 8 67 47 32 24 38 27 64 46z"/>
   <path fill="#F2F2F2" d="M416 101l0 133 -148 106c-7,6 -18,6 -25,0l-147 -106 0 -172c0,-10 8,-18 18,-18l244 0 58 57z"/>
   <path fill="#CDD6E0" d="M359 87c0,8 6,14 14,14l43 0 -57 -57 0 43 0 0z"/>
   <path fill="#FF7058" d="M311 231l15 0c-5,10 -12,18 -22,23 -12,7 -26,10 -42,10 -16,0 -30,-3 -41,-9 -12,-5 -21,-13 -27,-24 -5,-10 -8,-22 -8,-34 0,-14 3,-27 9,-39 7,-12 15,-20 27,-26 11,-5 24,-8 38,-8 12,0 23,3 32,7 10,5 17,11 22,21 4,8 7,18 7,29 0,12 -3,23 -11,33 -9,13 -21,19 -36,19 -4,0 -8,-1 -10,-2 -1,-2 -3,-4 -3,-6 -6,5 -12,8 -20,8 -8,0 -15,-3 -19,-8 -6,-6 -9,-14 -9,-23 0,-11 3,-21 9,-32 8,-11 18,-16 30,-16 9,0 15,3 20,10l2 -8 19 0 -11 52c-1,3 -1,5 -1,6 0,1 0,2 1,3 1,1 1,1 2,1 2,0 6,-2 9,-5 5,-3 10,-8 12,-15 3,-6 5,-13 5,-19 0,-12 -5,-23 -13,-30 -8,-8 -20,-12 -36,-12 -13,0 -25,3 -34,8 -9,6 -16,13 -20,23 -5,9 -7,19 -7,30 0,11 3,20 8,28 5,9 12,15 21,19 9,4 20,6 32,6 11,0 21,-2 29,-5 9,-4 15,-8 21,-15zm-79 -30c0,7 1,10 3,14 3,3 6,5 10,5 3,0 5,-1 7,-2 2,-1 4,-3 6,-5 3,-2 5,-7 6,-13 2,-5 3,-11 3,-16 0,-5 -1,-9 -4,-13 -2,-2 -5,-4 -9,-4 -4,0 -8,2 -11,4 -4,3 -7,8 -8,14 -2,6 -3,12 -3,16z"/>
  </g>
 </g>
</svg>
