<?xml version="1.0" encoding="UTF-8"?>
<!DOCTYPE svg PUBLIC "-//W3C//DTD SVG 1.1//EN" "http://www.w3.org/Graphics/SVG/1.1/DTD/svg11.dtd">
<!-- Creator: CorelDRAW X8 -->
<svg xmlns="http://www.w3.org/2000/svg" xml:space="preserve" width="512px" height="512px" version="1.1" shape-rendering="geometricPrecision" text-rendering="geometricPrecision" image-rendering="optimizeQuality" fill-rule="evenodd" clip-rule="evenodd"
viewBox="0 0 512 512"
 xmlns:xlink="http://www.w3.org/1999/xlink">
 <rect fill="none" width="512" height="512"/>
 <g id="Layer_x0020_1">
  <metadata id="CorelCorpID_0Corel-Layer"/>
  <g id="_1994543203248">
   <path fill="#EE3840" d="M430 206c0,139 -157,268 -157,268 -9,8 -25,8 -34,0 0,0 -157,-129 -157,-268 0,-96 78,-174 174,-174 96,0 174,78 174,174z"/>
   <path fill="#FFE1D6" d="M256 294c-48,0 -88,-40 -88,-88 0,-48 40,-88 88,-88 48,0 88,40 88,88 0,48 -40,88 -88,88z"/>
  </g>
 </g>
</svg>
