<?xml version="1.0" encoding="UTF-8"?>
<!DOCTYPE svg PUBLIC "-//W3C//DTD SVG 1.1//EN" "http://www.w3.org/Graphics/SVG/1.1/DTD/svg11.dtd">
<!-- Creator: CorelDRAW X8 -->
<svg xmlns="http://www.w3.org/2000/svg" xml:space="preserve" width="512px" height="512px" version="1.1" shape-rendering="geometricPrecision" text-rendering="geometricPrecision" image-rendering="optimizeQuality" fill-rule="evenodd" clip-rule="evenodd"
viewBox="0 0 512 512"
 xmlns:xlink="http://www.w3.org/1999/xlink">
 <rect fill="none" width="512" height="512"/>
 <g id="Layer_x0020_1">
  <metadata id="CorelCorpID_0Corel-Layer"/>
  <path fill="#727376" d="M256 32c124,0 224,100 224,224 0,124 -100,224 -224,224 -124,0 -224,-100 -224,-224 0,-124 100,-224 224,-224zm-115 246c-12,0 -22,-10 -22,-22 0,-12 10,-22 22,-22l230 0c12,0 22,10 22,22 0,12 -10,22 -22,22l-230 0z"/>
 </g>
</svg>
