<?xml version="1.0" encoding="UTF-8"?>
<!DOCTYPE svg PUBLIC "-//W3C//DTD SVG 1.1//EN" "http://www.w3.org/Graphics/SVG/1.1/DTD/svg11.dtd">
<!-- Creator: CorelDRAW X8 -->
<svg xmlns="http://www.w3.org/2000/svg" xml:space="preserve" width="512px" height="512px" version="1.1" shape-rendering="geometricPrecision" text-rendering="geometricPrecision" image-rendering="optimizeQuality" fill-rule="evenodd" clip-rule="evenodd"
viewBox="0 0 512 512"
 xmlns:xlink="http://www.w3.org/1999/xlink">
 <rect fill="none" width="512" height="512"/>
 <g id="Layer_x0020_1">
  <metadata id="CorelCorpID_0Corel-Layer"/>
  <g id="_1994543198064">
   <path fill="#545E73" d="M322 47l-31 0 0 24 -70 0 0 -24 -147 0 0 433 364 0 0 -433 -116 0zm0 0z"/>
   <rect fill="#404656" x="221" y="32" width="69.5177" height="38.6205"/>
   <path fill="#EFEBDE" d="M345 71l0 23 -178 0 0 -23 -69 0 0 386 316 0 0 -386 -69 0zm0 0z"/>
   <path fill="#8697CB" d="M291 47l0 24 -70 0 0 -24 -54 0 0 47 178 0 0 -47 -54 0zm0 0z"/>
   <path fill="#D5D0BB" d="M244 156l-100 0c0,0 0,0 0,0 -5,0 -8,-4 -8,-8 0,-4 3,-8 8,-8 0,0 0,0 0,0l100 0c5,0 8,4 8,8 0,4 -3,7 -8,8l0 0zm0 -16z"/>
   <path fill="#D5D0BB" d="M244 395l-100 0c0,0 0,0 0,0 -5,0 -8,-3 -8,-8 0,-4 3,-7 8,-7 0,0 0,0 0,0l100 0c5,0 8,3 8,7 0,4 -3,8 -8,8l0 0zm0 -15z"/>
   <path fill="#D5D0BB" d="M368 202l-224 0c0,0 0,0 0,0 -5,0 -8,-4 -8,-8 0,-4 3,-8 8,-8 0,0 0,0 0,0l224 0c4,1 7,4 7,8 0,4 -3,8 -7,8zm0 -16z"/>
   <path fill="#D5D0BB" d="M368 295l-224 0c0,0 0,0 0,0 -5,0 -8,-4 -8,-8 0,-4 3,-8 8,-8 0,0 0,0 0,0l224 0c0,0 0,0 0,0 5,0 8,4 8,8 0,4 -3,8 -8,8 0,0 0,0 0,0zm0 -16z"/>
   <path fill="#D5D0BB" d="M368 349l-224 0c0,0 0,0 0,0 -5,0 -8,-4 -8,-8 0,-4 3,-8 8,-8 0,0 0,0 0,0l224 0c4,0 7,4 7,8 0,4 -3,7 -7,8zm0 -16z"/>
   <path fill="#D5D0BB" d="M252 248l-108 0c0,0 0,0 0,0 -5,0 -8,-3 -8,-7 0,-5 3,-8 8,-8 0,0 0,0 0,0l108 0c0,0 0,0 1,0 4,0 7,3 7,8 0,4 -3,7 -7,7 -1,0 -1,0 -1,0l0 0zm0 -15z"/>
   <path fill="#D5D0BB" d="M368 248l-54 0c0,0 0,0 0,0 -5,0 -8,-3 -8,-7 0,-5 3,-8 8,-8 0,0 0,0 0,0l54 0c0,0 0,0 0,0 5,0 8,3 8,8 0,4 -3,7 -8,7 0,0 0,0 0,0zm0 -15z"/>
   <path fill="#D5D0BB" d="M283 248c0,0 0,0 0,0 0,5 -3,8 -8,8 0,0 0,0 0,0l8 -8zm0 0z"/>
  </g>
 </g>
</svg>
