<?xml version="1.0" encoding="UTF-8"?>
<!DOCTYPE svg PUBLIC "-//W3C//DTD SVG 1.1//EN" "http://www.w3.org/Graphics/SVG/1.1/DTD/svg11.dtd">
<!-- Creator: CorelDRAW X8 -->
<svg xmlns="http://www.w3.org/2000/svg" xml:space="preserve" width="512px" height="512px" version="1.1" shape-rendering="geometricPrecision" text-rendering="geometricPrecision" image-rendering="optimizeQuality" fill-rule="evenodd" clip-rule="evenodd"
viewBox="0 0 512 512"
 xmlns:xlink="http://www.w3.org/1999/xlink">
 <rect fill="none" width="512" height="512"/>
 <g id="Layer_x0020_1">
  <metadata id="CorelCorpID_0Corel-Layer"/>
  <path fill="#727376" d="M311 108l91 91 -231 230 -91 -91 231 -230zm160 -22l-41 -41c-7,-8 -18,-12 -28,-12 -11,0 -21,4 -29,12l-39 39 91 91 46 -45c6,-6 9,-14 9,-22 0,-9 -3,-17 -9,-22l0 0zm-439 380c0,1 0,2 0,3 0,5 5,10 10,10 1,0 2,0 3,0l101 -25 -91 -91 -23 103zm0 0z"/>
 </g>
</svg>
