<?xml version="1.0" encoding="UTF-8"?>
<!DOCTYPE svg PUBLIC "-//W3C//DTD SVG 1.1//EN" "http://www.w3.org/Graphics/SVG/1.1/DTD/svg11.dtd">
<!-- Creator: CorelDRAW X8 -->
<svg xmlns="http://www.w3.org/2000/svg" xml:space="preserve" width="512px" height="512px" version="1.1" shape-rendering="geometricPrecision" text-rendering="geometricPrecision" image-rendering="optimizeQuality" fill-rule="evenodd" clip-rule="evenodd"
viewBox="0 0 512 512"
 xmlns:xlink="http://www.w3.org/1999/xlink">
 <rect fill="none" width="512" height="512"/>
 <g id="Layer_x0020_1">
  <metadata id="CorelCorpID_0Corel-Layer"/>
  <g id="_1994543199792">
   <path fill="#69BC45" d="M137 467c29,-16 63,-74 63,-74 8,-13 9,-29 -5,-36 0,0 -22,-19 -25,-24 -15,-22 -14,-42 6,-63l48 -48 47 -47c21,-21 41,-21 63,-6 5,3 24,25 24,25 8,14 23,13 37,5 0,0 58,-34 73,-64 6,-11 4,-27 -6,-37l-21 -21c-66,-66 -142,-34 -209,33l-61 62 -62 61c-66,67 -99,142 -33,209l21 21c11,9 27,11 40,4z"/>
   <path fill="#449E46" d="M141 475c31,-17 65,-75 67,-77 4,-8 7,-15 7,-23 0,-11 -5,-20 -15,-25 -10,-8 -21,-19 -24,-21 -13,-20 -11,-35 5,-53l96 -95c16,-17 32,-18 52,-5 2,2 13,13 22,24 4,7 9,11 16,13 9,2 20,0 31,-6 2,-2 60,-36 77,-67 3,-5 5,-12 5,-19 0,-11 -4,-21 -12,-29l-21 -21c-33,-33 -72,-45 -112,-35 -34,8 -71,31 -109,69l-122 122c-47,47 -72,93 -72,135l0 0c0,31 13,60 39,85l21 21c13,12 32,15 49,7zm-37 -19l-21 -21c-22,-23 -34,-47 -34,-74l0 0c0,-37 23,-79 68,-124l121 -122c35,-35 69,-57 100,-63 36,-9 67,1 97,31l21 21c5,5 7,11 7,17 0,4 0,8 -2,12 -14,27 -71,60 -71,60 -6,4 -13,5 -18,5 -3,-1 -5,-3 -6,-6l-2 -2c-6,-7 -20,-24 -26,-27 -7,-5 -15,-9 -22,-10 11,-6 25,-11 40,-13 5,0 9,-5 8,-9 -1,-4 -4,-7 -9,-7 -58,6 -96,50 -97,53l0 1 -88 88 -1 0c-1,0 -1,1 -2,1 -1,2 -38,39 -44,97l0 0c0,4 4,8 8,9 4,0 8,-3 9,-8 2,-17 6,-33 13,-45 2,6 5,12 9,19 4,5 21,19 28,25l1 1c4,3 6,6 6,11 0,4 -2,9 -4,14 -9,16 -38,59 -61,71 -9,5 -20,3 -28,-5z"/>
  </g>
 </g>
</svg>
