<?xml version="1.0" encoding="UTF-8"?>
<!DOCTYPE svg PUBLIC "-//W3C//DTD SVG 1.1//EN" "http://www.w3.org/Graphics/SVG/1.1/DTD/svg11.dtd">
<!-- Creator: CorelDRAW X8 -->
<svg xmlns="http://www.w3.org/2000/svg" xml:space="preserve" width="512px" height="512px" version="1.1" shape-rendering="geometricPrecision" text-rendering="geometricPrecision" image-rendering="optimizeQuality" fill-rule="evenodd" clip-rule="evenodd"
viewBox="0 0 512 512"
 xmlns:xlink="http://www.w3.org/1999/xlink">
 <rect fill="none" width="512" height="512"/>
 <g id="Layer_x0020_1">
  <metadata id="CorelCorpID_0Corel-Layer"/>
  <g id="_1994543313472">
   <path fill="#727376" d="M87 87c74,-73 193,-73 266,0 73,74 73,193 0,266 -73,73 -192,73 -266,0 -73,-73 -73,-192 0,-266zm29 29c58,-57 151,-57 208,0 57,58 57,151 0,208 -57,57 -150,57 -208,0 -57,-57 -57,-150 0,-208z"/>
   <rect fill="#727376" transform="matrix(2.1254 -2.1254 0.977018 0.977018 316.434 345.66)" width="13.7504" height="137.501"/>
  </g>
 </g>
</svg>
