<?xml version="1.0" encoding="UTF-8"?>
<!DOCTYPE svg PUBLIC "-//W3C//DTD SVG 1.1//EN" "http://www.w3.org/Graphics/SVG/1.1/DTD/svg11.dtd">
<!-- Creator: CorelDRAW X8 -->
<svg xmlns="http://www.w3.org/2000/svg" xml:space="preserve" width="512px" height="512px" version="1.1" shape-rendering="geometricPrecision" text-rendering="geometricPrecision" image-rendering="optimizeQuality" fill-rule="evenodd" clip-rule="evenodd"
viewBox="0 0 512 512"
 xmlns:xlink="http://www.w3.org/1999/xlink">
 <rect fill="none" width="512" height="512"/>
 <g id="Layer_x0020_1">
  <metadata id="CorelCorpID_0Corel-Layer"/>
  <g id="_1994538555856">
   <path fill="#84DBFF" d="M333 158c-3,-12 -8,-23 -14,-33l12 -26 -40 -39 -26 12c-10,-6 -20,-11 -32,-13l-10 -27 -55 0 -10 27c-11,2 -22,7 -33,13l-26 -12 -38 39 11 26c-5,10 -10,20 -13,33l-27 10 0 55 27 10c3,11 8,23 13,33l-11 26 39 38 26 -11c11,6 21,10 33,13l10 27 54 0 11 -27c11,-3 22,-7 32,-13l26 11 40 -38 -12 -26c6,-10 11,-21 13,-33l28 -10 0 -55 -28 -10zm-138 104c-37,0 -67,-30 -67,-67 0,-37 30,-67 67,-67 38,0 68,30 68,67 0,37 -30,67 -68,67z"/>
   <path fill="#54C0EB" d="M243 242c-26,27 -68,27 -94,0l-25 25c40,39 104,39 143,0 39,-39 39,-103 0,-143l-24 24c26,26 26,68 0,94z"/>
   <path fill="#54C0EB" d="M124 124c-39,39 -39,103 0,143l25 -25c-26,-26 -26,-68 0,-94 26,-26 68,-26 94,0l24 -24c-39,-39 -103,-39 -143,0z"/>
   <path fill="#4CDBC4" d="M348 414c1,-5 1,-10 0,-16l10 -9 -10 -23 -13 0c-2,-4 -7,-8 -11,-12l0 -13 -23 -9 -10 9c-5,-1 -10,-1 -15,0l-10 -9 -23 9 0 13c-4,3 -8,8 -11,12l-13 0 -10 23 10 9c-1,6 -1,11 0,16l-10 10 10 23 13 0c3,4 7,7 11,11l0 13 23 9 10 -9c5,1 10,1 15,0l10 9 23 -9 0 -13c4,-3 8,-7 11,-11l13 0 10 -23 -10 -10zm-74 20c-16,-7 -24,-24 -17,-39 6,-16 24,-24 39,-17 16,6 23,24 17,39 -7,16 -24,23 -39,17z"/>
   <path fill="#FF7058" d="M471 292c1,-6 1,-10 0,-16l9 -9 -9 -24 -13 0c-3,-3 -8,-7 -12,-11l0 -13 -23 -9 -9 9c-6,-1 -11,-1 -16,0l-9 -9 -24 9 0 13c-4,3 -7,8 -11,11l-13 0 -9 24 9 9c-1,6 -1,10 0,16l-9 9 9 24 13 0c3,3 7,7 11,11l0 13 24 9 9 -9c5,1 10,1 16,0l9 9 23 -9 0 -13c4,-3 8,-8 12,-11l13 0 9 -24 -9 -9zm-76 20c-16,-6 -23,-24 -17,-39 7,-16 25,-23 39,-17 16,7 24,25 17,40 -5,16 -23,23 -39,16z"/>
  </g>
 </g>
</svg>
