<?xml version="1.0" encoding="UTF-8"?>
<!DOCTYPE svg PUBLIC "-//W3C//DTD SVG 1.1//EN" "http://www.w3.org/Graphics/SVG/1.1/DTD/svg11.dtd">
<!-- Creator: CorelDRAW X8 -->
<svg xmlns="http://www.w3.org/2000/svg" xml:space="preserve" width="512px" height="512px" version="1.1" shape-rendering="geometricPrecision" text-rendering="geometricPrecision" image-rendering="optimizeQuality" fill-rule="evenodd" clip-rule="evenodd"
viewBox="0 0 512 512"
 xmlns:xlink="http://www.w3.org/1999/xlink">
 <rect fill="none" width="512" height="512"/>
 <g id="Layer_x0020_1">
  <metadata id="CorelCorpID_0Corel-Layer"/>
  <g id="_1994532312400">
   <path fill="#DB2B42" d="M338 246l-164 0 0 169 42 0 0 59 71 -59 193 0 0 -208 -142 0 0 39zm78 102l-179 0 0 -9 179 0 0 9zm0 -25l-179 0 0 -9 179 0 0 9zm0 -25l-179 0 0 -9 179 0 0 9z"/>
   <path fill="#8AD5DD" d="M338 207l0 -169 -306 0 0 208 43 0 0 59 71 -59 28 0 164 0 0 -39 0 0zm-77 -62c-13,-4 -21,-11 -21,-23 0,-12 10,-21 26,-21 8,0 14,2 18,4l-3 8c-3,-1 -8,-4 -16,-4 -11,0 -15,7 -15,12 0,8 5,11 16,16 14,5 21,12 21,23 0,13 -9,23 -28,23 -8,0 -17,-2 -21,-5l3 -8c4,3 11,5 18,5 11,0 17,-6 17,-14 0,-7 -4,-12 -15,-16zm-155 0c-13,-4 -21,-11 -21,-23 0,-12 11,-21 26,-21 8,0 14,2 18,4l-3 8c-3,-1 -8,-4 -15,-4 -11,0 -15,7 -15,12 0,8 4,11 16,16 13,5 20,12 20,23 0,13 -9,23 -28,23 -8,0 -16,-2 -21,-5l3 -8c5,3 12,5 19,5 10,0 16,-6 16,-14 0,-7 -4,-12 -15,-16zm52 -33l0 0c0,10 -1,24 -2,36l-2 34 -10 0 6 -80 13 0 14 39c3,10 6,19 8,27l0 0c2,-8 5,-17 9,-27l14 -39 13 0 5 80 -10 0 -2 -35c-1,-11 -1,-25 -1,-35l-1 0c-2,10 -6,20 -10,31l-14 39 -8 0 -13 -38c-4,-12 -7,-22 -9,-32z"/>
   <path fill="white" d="M105 175c-7,0 -14,-2 -19,-5l-3 8c5,3 13,5 21,5 19,0 28,-10 28,-23 0,-11 -7,-18 -20,-23 -11,-5 -16,-8 -16,-16 0,-5 4,-12 15,-12 7,0 12,3 15,4l3 -8c-4,-2 -10,-4 -18,-4 -15,0 -26,9 -26,21 0,12 8,19 21,23 11,4 15,9 15,16 0,8 -6,14 -16,14z"/>
   <path fill="white" d="M188 182l14 -39c4,-11 8,-21 10,-31l1 0c0,10 0,24 1,35l2 35 10 0 -5 -80 -13 0 -14 39c-4,10 -7,19 -9,27l0 0c-2,-8 -5,-17 -8,-27l-14 -39 -13 0 -6 80 10 0 2 -34c1,-12 2,-26 2,-36l0 0c2,10 5,20 9,32l13 38 8 0 0 0z"/>
   <path fill="white" d="M259 175c-7,0 -14,-2 -18,-5l-3 8c4,3 13,5 21,5 19,0 28,-10 28,-23 0,-11 -7,-18 -21,-23 -11,-5 -16,-8 -16,-16 0,-5 4,-12 15,-12 8,0 13,3 16,4l3 -8c-4,-2 -10,-4 -18,-4 -16,0 -26,9 -26,21 0,12 8,19 21,23 11,4 15,9 15,16 0,8 -6,14 -17,14z"/>
   <rect fill="white" x="237" y="289" width="179.201" height="8.96019"/>
   <rect fill="white" x="237" y="314" width="179.201" height="8.96019"/>
   <rect fill="white" x="237" y="339" width="179.201" height="8.96019"/>
  </g>
 </g>
</svg>
