<?xml version="1.0" encoding="UTF-8"?>
<!DOCTYPE svg PUBLIC "-//W3C//DTD SVG 1.1//EN" "http://www.w3.org/Graphics/SVG/1.1/DTD/svg11.dtd">
<!-- Creator: CorelDRAW X8 -->
<svg xmlns="http://www.w3.org/2000/svg" xml:space="preserve" width="512px" height="512px" version="1.1" shape-rendering="geometricPrecision" text-rendering="geometricPrecision" image-rendering="optimizeQuality" fill-rule="evenodd" clip-rule="evenodd"
viewBox="0 0 512 512"
 xmlns:xlink="http://www.w3.org/1999/xlink">
 <rect fill="none" width="512" height="512"/>
 <g id="Layer_x0020_1">
  <metadata id="CorelCorpID_0Corel-Layer"/>
  <g id="_1994571435440">
   <path fill="#5A4146" d="M357 231l0 5c0,6 1,12 3,18l12 35 21 0 0 -80 -14 0c-12,0 -22,10 -22,22z"/>
   <path fill="#694B4B" d="M456 246l-12 43 -58 -51c-8,0 -14,-7 -14,-15l0 0c0,-11 9,-21 21,-21l51 0c8,0 14,6 14,14l0 14c0,5 0,11 -2,16z"/>
   <rect fill="#E6AF78" x="386" y="310" width="43.3551" height="31.9807"/>
   <path fill="#D29B6E" d="M386 323c7,3 14,5 22,5 7,0 15,-2 21,-5l0 -13 -43 0 0 13 0 0z"/>
   <path fill="#D5DCED" d="M464 338l-35 -10 -21 14 -22 -14 -35 10c-9,2 -16,11 -16,21l0 52c0,4 4,8 8,8l130 0c4,0 7,-4 7,-8l0 -52c0,-10 -6,-19 -16,-21z"/>
   <polygon fill="#AFB9D2" points="415,419 401,419 404,342 411,342 "/>
   <path fill="#F0C087" d="M408 317l0 0c-24,0 -44,-19 -44,-43l0 -8c0,-4 2,-8 5,-11l13 -13c2,-2 6,-4 10,-4 23,1 44,6 55,17 3,2 4,6 4,10l0 9c0,24 -19,43 -43,43z"/>
   <path fill="#E6AF78" d="M386 267c0,-8 7,-15 15,-14 15,1 37,3 50,10 -1,-3 -2,-6 -4,-8 -11,-11 -32,-16 -55,-17l0 0 0 0c-4,0 -8,2 -10,4l-13 13c-3,3 -5,7 -5,11l0 8c0,20 14,36 32,42 -6,-8 -10,-17 -10,-27l0 -22 0 0z"/>
   <path fill="#C7CFE2" d="M451 380c0,-6 2,-11 6,-15l19 -19c3,4 4,8 4,13l0 52c0,4 -3,8 -7,8l-22 0 0 -39 0 0z"/>
   <path fill="#959CB5" d="M411 357l-7 0c-2,0 -3,-2 -3,-4l0 -11 14 0 0 11c0,2 -2,4 -4,4z"/>
   <path fill="#C7CFE2" d="M408 342l-13 9c-2,2 -5,1 -6,-1l-11 -20 4 -7c1,-1 4,-1 5,0l21 19z"/>
   <path fill="#C7CFE2" d="M408 342l12 9c2,2 5,1 6,-1l11 -20 -4 -7c-1,-1 -3,-1 -4,0l-21 19z"/>
   <path fill="#5A4146" d="M161 314c-6,-16 -11,-44 -12,-59 -2,-28 -23,-50 -51,-50 -29,0 -50,22 -52,50 -1,15 -6,43 -12,59 -1,4 0,8 4,10 7,3 21,8 38,11l44 0c17,-3 31,-8 38,-11 3,-2 5,-6 3,-10z"/>
   <path fill="#694B4B" d="M158 324c3,-2 5,-6 3,-10 -6,-16 -11,-44 -12,-59 -2,-28 -23,-50 -51,-50 0,0 0,0 0,0 -22,0 -30,29 -11,41 1,0 2,1 2,1l16 88 15 0c17,-3 31,-8 38,-11z"/>
   <path fill="#E6AF78" d="M150 349l-23 -11c-5,-3 -8,-8 -8,-13l0 -22 -44 0 0 22c0,5 -3,10 -8,13l-23 11c-7,4 -12,11 -12,20l0 42c0,4 3,8 7,8l116 0c4,0 7,-4 7,-8l0 -42c0,-9 -5,-16 -12,-20z"/>
   <path fill="#D29B6E" d="M97 332c8,0 15,-2 22,-5 0,0 0,-1 0,-2l0 -22 -44 0 0 22c0,1 0,2 0,2 7,3 14,5 22,5z"/>
   <path fill="#D5DCED" d="M150 349l-17 -8c-7,12 -21,20 -36,20 -15,0 -29,-8 -36,-20l-17 8c-7,4 -12,11 -12,20l0 42c0,4 3,8 7,8l116 0c4,0 7,-4 7,-8l0 -42c0,-9 -5,-16 -12,-20z"/>
   <path fill="#F0C087" d="M97 317l0 0c-22,0 -40,-16 -43,-37 0,-3 1,-6 4,-8 3,-2 8,-4 13,-8 5,-5 8,-10 10,-13 1,-4 4,-5 8,-4 25,6 42,19 49,25 1,1 2,3 2,5 -1,23 -20,40 -43,40z"/>
   <path fill="#E6AF78" d="M138 272c-7,-6 -24,-19 -49,-25 -4,-1 -7,0 -8,4 -2,2 -4,6 -7,9 0,0 0,0 0,0 -1,1 -2,2 -3,4 -5,4 -10,6 -13,8 -3,2 -4,5 -4,8 3,19 17,34 36,37 -8,-6 -15,-14 -15,-28l0 -11c2,-1 4,-2 5,-4 4,-3 8,-7 11,-12 19,6 32,16 37,21 2,1 5,4 9,8 2,-4 3,-9 3,-14 0,-2 -1,-4 -2,-5z"/>
   <path fill="#C7CFE2" d="M36 356c-2,3 -4,8 -4,13l0 42c0,4 3,8 7,8l22 0 0 -37c0,-4 -2,-8 -6,-11l-19 -15z"/>
   <path fill="#FF507D" d="M360 339l-61 -22 -43 15 -43 -15 -61 22c-11,5 -19,15 -19,28l0 44c0,4 3,8 7,8l232 0c4,0 7,-4 7,-8l0 -44c0,-13 -8,-23 -19,-28z"/>
   <polygon fill="#707487" points="248,346 242,419 270,419 264,346 "/>
   <path fill="#5B5D6E" d="M264 356l-16 0c-2,0 -5,-2 -5,-5l0 -19 26 0 0 19c0,3 -3,5 -5,5z"/>
   <path fill="#D23C69" d="M371 347c5,5 8,12 8,20l0 44c0,4 -3,8 -7,8l-37 0 0 -25c0,-7 4,-15 9,-20l27 -27z"/>
   <path fill="#5A4146" d="M335 168l0 -60c0,-8 -6,-15 -14,-15l-87 0c-32,0 -57,26 -57,58l0 17c0,8 1,16 3,23l3 7c0,3 1,5 1,7l0 4 144 0 0 -4c0,-2 1,-4 1,-7l3 -7c2,-7 3,-15 3,-23z"/>
   <path fill="#694B4B" d="M213 123c0,16 13,29 29,29l4 0 2 57 80 0 0 -4c0,-2 1,-4 1,-7l3 -7c2,-7 3,-15 3,-23l0 -60c0,-8 -6,-15 -14,-15l-79 0c-16,0 -29,14 -29,30z"/>
   <rect fill="#E6AF78" x="213" y="267" width="86.7123" height="65.03"/>
   <path fill="#D29B6E" d="M213 291c12,8 27,12 43,12 16,0 31,-4 43,-12l0 -24 -86 0 0 24 0 0z"/>
   <path fill="#D23C69" d="M256 332l-23 23c-3,3 -8,3 -11,-1l-24 -31 6 -13c2,-4 7,-6 11,-4l41 26z"/>
   <path fill="#D23C69" d="M256 332l23 23c3,3 8,3 11,-1l24 -31 -6 -13c-2,-4 -7,-6 -11,-4l-41 26z"/>
   <path fill="#F0C087" d="M256 289l0 0c-40,0 -72,-33 -72,-73l0 -8c0,-4 1,-8 4,-10l6 -6c3,-3 4,-7 4,-11l0 -17c0,-3 2,-6 6,-7 17,-4 70,-14 106,13 3,2 4,5 4,8l0 3c0,4 1,8 4,11l6 6c3,2 4,6 4,10l0 8c0,40 -32,73 -72,73z"/>
   <path fill="#E6AF78" d="M310 170c-25,-19 -59,-19 -83,-17 -10,1 -18,3 -23,4 -4,1 -6,4 -6,7l0 17c0,4 -1,8 -4,11l-6 6c-3,2 -4,6 -4,10l0 8c0,37 27,68 63,72 -12,-13 -20,-31 -20,-50l0 -53c0,-7 6,-13 13,-14 17,-2 49,-4 74,10l0 -3c0,-3 -1,-6 -4,-8z"/>
   <path fill="#D23C69" d="M141 347c-5,5 -8,12 -8,20l0 44c0,4 3,8 7,8l37 0 0 -25c0,-7 -4,-15 -9,-20l-27 -27z"/>
  </g>
 </g>
</svg>
